<?xml version="1.0" encoding="UTF-8" standalone="no"?>
<!-- Generator: Adobe Illustrator 15.0.0, SVG Export Plug-In . SVG Version: 6.00 Build 0)  -->

<svg
   xmlns:dc="http://purl.org/dc/elements/1.1/"
   xmlns:cc="http://creativecommons.org/ns#"
   xmlns:rdf="http://www.w3.org/1999/02/22-rdf-syntax-ns#"
   xmlns:svg="http://www.w3.org/2000/svg"
   xmlns="http://www.w3.org/2000/svg"
   xmlns:sodipodi="http://sodipodi.sourceforge.net/DTD/sodipodi-0.dtd"
   xmlns:inkscape="http://www.inkscape.org/namespaces/inkscape"
   version="1.1"
   id="Layer_1"
   x="0px"
   y="0px"
   width="302.44852"
   height="335.521"
   viewBox="0 0 302.44852 335.521"
   enable-background="new 0 0 792 612"
   xml:space="preserve"
   inkscape:version="0.48.3.1 r9886"
   sodipodi:docname="logo.svg"><metadata
   id="metadata127"><rdf:RDF><cc:Work
       rdf:about=""><dc:format>image/svg+xml</dc:format><dc:type
         rdf:resource="http://purl.org/dc/dcmitype/StillImage" /></cc:Work></rdf:RDF></metadata><defs
   id="defs125" /><sodipodi:namedview
   pagecolor="#ffffff"
   bordercolor="#666666"
   borderopacity="1"
   objecttolerance="10"
   gridtolerance="10"
   guidetolerance="10"
   inkscape:pageopacity="0"
   inkscape:pageshadow="2"
   inkscape:window-width="1366"
   inkscape:window-height="743"
   id="namedview123"
   showgrid="false"
   fit-margin-top="0"
   fit-margin-left="0"
   fit-margin-right="0"
   fit-margin-bottom="0"
   inkscape:zoom="0.37247475"
   inkscape:cx="150.88251"
   inkscape:cy="168.16"
   inkscape:window-x="0"
   inkscape:window-y="0"
   inkscape:window-maximized="1"
   inkscape:current-layer="Layer_1" />
<g
   id="g3"
   transform="translate(-245.11749,-138.639)">
	<g
   id="g5">
		<path
   d="m 352.372,230.27 c 0,0 -5.521,6.425 -20.623,-3.694 -15.12,-10.093 5.073,-22.44 12.841,-11.889 7.792,10.558 7.792,10.558 7.792,10.558 0,0 -7.289,-34.409 5.543,-36.225 12.839,-1.828 10.981,22.938 10.965,27.542 0.003,4.566 -1.38,12.36 -5.518,12.351 -4.132,0 -5.031,0.927 -5.96,-1.831 -0.91,-2.752 8.267,-3.665 12.829,3.216 4.594,6.887 -2.273,9.181 -5.963,7.345 -3.656,-1.851 -8.243,-5.976 -8.243,-5.976 0,0 5.486,8.27 0.45,9.623 -5.052,1.373 -4.113,-11.02 -4.113,-11.02 z"
   id="path7"
   inkscape:connector-curvature="0"
   style="fill:#fbb034" />
	</g>
	<g
   id="g9">
		<path
   d="m 284.736,425.331 0.616,-0.014 c 3.752,0.008 6.847,2.467 9.295,7.389 0.813,2.206 1.215,3.799 1.214,4.75 -1.205,1.574 -1.899,2.42 -2.109,2.538 -0.527,0.36 -0.911,0.531 -1.135,0.541 l -0.087,-0.01 c -0.877,0.005 -1.982,-1.557 -3.335,-4.662 -0.761,-2.193 -1.767,-3.61 -3.069,-4.219 l -0.443,-0.269 c -1.884,0.482 -3.293,1.341 -4.218,2.552 -2.334,2.881 -3.517,6.927 -3.523,12.107 l 0.004,0.881 c -0.021,7.809 2.181,14.391 6.549,19.771 1.383,1.464 2.787,2.193 4.21,2.193 3.27,0.002 6.307,-3.992 9.071,-12.007 0.595,-1.835 1.144,-4.271 1.679,-7.378 -1.67,0.227 -5.163,0.904 -10.453,2.018 l 0.005,-0.281 c 0.008,-0.574 -0.568,-1.033 -1.673,-1.396 -0.521,-0.412 -0.781,-0.791 -0.8,-1.146 l 0.019,-0.088 c -0.019,-2.231 2.812,-3.78 8.425,-4.649 3.087,-0.414 5.964,-0.607 8.615,-0.6 0.866,0 1.312,0.175 1.307,0.527 0.171,0.851 0.299,1.833 0.353,2.984 0,4.016 -1.824,10.128 -5.466,18.352 -1.999,4.002 -4.812,6.804 -8.454,8.409 -0.724,0.36 -1.553,0.536 -2.45,0.536 h -0.257 c -3.154,-0.016 -6.258,-1.418 -9.299,-4.237 -5.212,-6.938 -7.823,-14.276 -7.812,-22.06 l 0.013,-0.948 c -0.013,-7.422 1.925,-13.435 5.727,-18.086 2.361,-2.334 4.844,-3.512 7.481,-3.498 z"
   id="path11"
   inkscape:connector-curvature="0"
   style="fill:#fbb034" />
		<path
   d="m 309.761,435.464 0.53,-0.005 c 1.485,0 2.389,0.386 2.72,1.142 l 0.274,0.961 v 0.088 c -0.017,1.188 -1.198,1.974 -3.61,2.376 l -0.608,-0.011 c -1.772,-0.159 -2.638,-0.675 -2.651,-1.58 l -0.065,-0.335 v -0.551 c 0.458,-1.39 1.602,-2.101 3.41,-2.085 z m 0.164,8.947 c 1.165,0.008 1.773,0.299 1.76,0.876 0.697,3.819 1.043,7.936 1.043,12.309 v 2.551 l -0.19,9.474 c -0.451,0.343 -1.167,0.608 -2.118,0.789 l -0.699,0.7 -0.086,-0.002 c -0.507,0 -0.981,-0.399 -1.398,-1.145 0.01,0.348 -0.066,0.521 -0.184,0.521 -0.891,-0.775 -1.313,-2.466 -1.313,-5.095 l 0.797,-10.798 c -0.099,-1.531 -0.156,-3.706 -0.147,-6.486 -0.009,-2.472 0.847,-3.704 2.535,-3.694 z"
   id="path13"
   inkscape:connector-curvature="0"
   style="fill:#fbb034" />
		<path
   d="m 332.3,447.122 0.786,0.006 c 0.925,0 1.716,0.623 2.371,1.845 -0.404,1.124 -0.642,1.912 -0.703,2.371 l 0.164,0.783 c -1.255,1.033 -2.672,4.901 -4.225,11.589 -1.454,4.502 -3.228,6.755 -5.362,6.755 -1.897,-0.013 -4.066,-2.443 -6.492,-7.283 -3.159,-4.788 -4.728,-7.757 -4.728,-8.886 v -0.7 c 0.004,-1.825 1.561,-2.742 4.661,-2.742 l 4.728,8.716 0.794,1.136 c 1.791,-1.18 3.306,-4.272 4.561,-9.301 1.012,-2.793 1.838,-4.211 2.483,-4.211 l 0.962,-0.078 z"
   id="path15"
   inkscape:connector-curvature="0"
   style="fill:#fbb034" />
		<path
   d="m 344.352,445.597 c 3.047,0 5.537,1.992 7.458,5.992 0.351,1.239 0.53,2.221 0.53,2.878 -0.012,2.956 -2.296,5.327 -6.858,7.113 v 0.082 c 1.184,2.046 2.764,3.085 4.725,3.08 2.64,0.005 5.484,-2.121 8.531,-6.399 1.814,-2.051 3.223,-3.062 4.23,-3.062 l 0.147,0.005 0.188,0.171 0.004,0.873 -0.081,0.363 c 0.05,0.186 0.16,0.299 0.339,0.341 0.37,0 0.627,-0.31 0.805,-0.956 h 0.173 l -0.004,0.077 c 0.004,0.989 -0.896,2.62 -2.654,4.922 -0.25,0.497 -0.473,1.085 -0.608,1.75 -0.822,0.159 -1.227,0.474 -1.227,0.974 -1.635,2.668 -4.047,4.582 -7.294,5.693 -0.972,0.231 -1.818,0.348 -2.549,0.348 h -0.876 c -4.295,-0.011 -8.536,-3.123 -12.725,-9.332 l 0.012,-0.164 -0.434,-6.945 -0.004,-0.701 c 0.006,-2.896 0.938,-4.706 2.81,-5.438 2.036,-1.121 3.828,-1.67 5.362,-1.665 z m -2.737,8.612 c -0.007,1.737 0.502,2.975 1.5,3.701 0.691,-0.013 1.7,-0.541 3.069,-1.598 0.248,-0.686 0.351,-1.253 0.351,-1.748 0.005,-1.799 -0.781,-3.04 -2.354,-3.705 l -0.711,-0.08 c -0.886,-0.008 -1.325,0.294 -1.325,0.879 -0.352,0.593 -0.523,1.441 -0.53,2.551 z"
   id="path17"
   inkscape:connector-curvature="0"
   style="fill:#fbb034" />
		<path
   d="m 384.549,428.346 0.357,0.005 c 1.31,0 2.275,0.665 2.893,2.021 -1.18,7.252 -1.774,12.979 -1.782,17.122 l -0.004,3.778 1.24,0.093 c 2.579,0.005 5.456,-0.396 8.596,-1.222 l 1.233,-0.093 h 0.252 c 1.352,0.005 2.026,0.637 2.026,1.951 -0.008,1.889 -1.296,3.038 -3.861,3.406 -1.179,0.271 -4.158,0.601 -8.869,0.956 -0.01,0.116 -0.202,0.171 -0.616,0.171 v 0.255 l 0.514,5.538 c -0.007,0.824 -0.179,1.559 -0.527,2.206 0.401,0.474 0.619,1.186 0.619,2.105 l -0.009,0.868 c 0,2.01 -0.208,3.093 -0.618,3.255 l -2.289,-0.188 c -0.264,0.006 -0.597,0.217 -0.965,0.635 -1.593,-0.649 -2.374,-3.196 -2.363,-7.654 0,-3.979 -0.202,-5.969 -0.604,-5.969 -0.536,-0.582 -2.42,-0.884 -5.6,-0.884 -1.509,0 -2.533,-0.768 -3.082,-2.271 l -0.013,-0.294 c 0.741,-1.566 2.375,-2.355 4.934,-2.355 1.333,0.064 2.011,0.163 2.002,0.286 0.471,0 0.786,-0.394 0.984,-1.157 l 0.259,-0.172 h 0.79 l -0.083,-1.14 c 0.013,-5.211 0.544,-11.806 1.599,-19.773 0.78,-0.984 1.764,-1.474 2.987,-1.479 z"
   id="path19"
   inkscape:connector-curvature="0"
   style="fill:#fbb034" />
		<path
   d="m 406.586,450.045 h 0.095 c 3.019,0 5.088,1.848 6.268,5.51 0.322,0.964 0.484,2.046 0.475,3.263 v 0.772 c 0.01,4.186 -1.588,7.543 -4.758,10.092 -1.731,1.036 -3.288,1.547 -4.654,1.552 l -0.309,-0.005 c -3.093,0.005 -5.288,-1.99 -6.591,-5.979 -0.311,-1.098 -0.476,-2.151 -0.476,-3.188 l 0.005,-0.467 c 0.008,-2.731 0.4,-5.241 1.182,-7.524 0.168,-0.212 0.883,-0.605 2.166,-1.16 0.266,-0.18 0.807,-0.843 1.631,-1.948 0.953,-0.619 2.605,-0.926 4.966,-0.918 z m -4.168,7.221 0.058,0.709 -0.155,4.167 c 0.14,2.384 0.67,3.562 1.562,3.562 1.234,-0.521 2.239,-1.477 3.007,-2.871 0.621,-1.17 0.931,-2.329 0.931,-3.486 v -0.292 c 0,-1.768 -0.64,-3.239 -1.92,-4.427 -0.967,0.016 -1.84,0.618 -2.668,1.857 -0.402,0.469 -0.675,0.735 -0.815,0.781 z"
   id="path21"
   inkscape:connector-curvature="0"
   style="fill:#fbb034" />
		<path
   d="m 430.191,430.598 0.797,0.011 c 1.389,0 2.316,0.396 2.791,1.231 0.236,0.443 0.363,0.814 0.363,1.129 l -0.016,0.366 -0.693,5.263 -0.186,4.216 c 0,3.873 0.557,11.53 1.719,23.019 0.734,-0.016 3.876,-1.269 9.417,-3.773 7.716,-3.68 13.746,-5.504 18.088,-5.51 1.698,0.014 3.096,0.22 4.121,0.619 l -0.077,2.363 v 0.884 c -0.008,0.139 -1.209,0.355 -3.621,0.616 -3.755,0.853 -6.945,1.837 -9.559,2.961 -3.505,1.7 -7.081,3.541 -10.726,5.532 -2.928,1.456 -5.639,2.181 -8.081,2.173 -3.052,-0.206 -4.56,-0.572 -4.56,-1.142 -1.566,-9.639 -2.353,-19.475 -2.343,-29.508 l 0.016,-4.919 0.072,-3.516 c 0.33,-0.19 0.649,-0.673 0.984,-1.396 0.611,-0.407 1.114,-0.621 1.494,-0.619 z"
   id="path23"
   inkscape:connector-curvature="0"
   style="fill:#fbb034" />
		<path
   d="m 470.693,435.657 h 0.518 c 1.494,0.01 2.387,0.389 2.724,1.142 l 0.278,0.964 -0.002,0.093 c -0.011,1.186 -1.227,1.979 -3.624,2.381 l -0.615,-0.003 c -1.748,-0.172 -2.621,-0.683 -2.613,-1.605 l -0.096,-0.335 v -0.538 c 0.479,-1.401 1.616,-2.099 3.43,-2.099 z m 0.157,8.955 c 1.176,-0.005 1.764,0.304 1.764,0.874 0.688,3.832 1.051,7.927 1.041,12.315 v 2.536 l -0.188,9.48 c -0.461,0.354 -1.17,0.601 -2.121,0.802 l -0.695,0.695 -0.096,0.011 c -0.513,-0.018 -0.981,-0.41 -1.399,-1.162 0,0.338 -0.06,0.533 -0.178,0.523 -0.887,-0.778 -1.307,-2.47 -1.296,-5.082 l 0.788,-10.809 c -0.121,-1.546 -0.165,-3.703 -0.165,-6.494 -0.001,-2.451 0.849,-3.694 2.545,-3.689 z"
   id="path25"
   inkscape:connector-curvature="0"
   style="fill:#fbb034" />
		<path
   d="m 493.206,447.315 0.812,0.019 c 0.923,0.005 1.701,0.607 2.363,1.84 -0.412,1.129 -0.654,1.912 -0.714,2.365 l 0.188,0.794 c -1.266,1.031 -2.673,4.892 -4.231,11.584 -1.456,4.497 -3.245,6.755 -5.373,6.752 -1.887,0.008 -4.067,-2.43 -6.494,-7.293 -3.147,-4.775 -4.722,-7.729 -4.722,-8.868 v -0.711 c 0.005,-1.814 1.536,-2.736 4.644,-2.716 l 4.742,8.7 0.783,1.136 c 1.776,-1.175 3.317,-4.272 4.587,-9.287 0.998,-2.807 1.828,-4.222 2.449,-4.222 l 0.966,-0.093 z"
   id="path27"
   inkscape:connector-curvature="0"
   style="fill:#fbb034" />
		<path
   d="m 505.279,445.803 c 3.021,0 5.518,1.989 7.438,5.979 0.369,1.248 0.541,2.222 0.536,2.887 -0.005,2.956 -2.293,5.324 -6.862,7.112 l 0.013,0.093 c 1.186,2.036 2.758,3.067 4.727,3.067 2.639,0.01 5.489,-2.124 8.524,-6.396 1.825,-2.031 3.232,-3.064 4.222,-3.057 h 0.181 l 0.172,0.165 v 0.887 l -0.095,0.351 c 0.054,0.195 0.181,0.304 0.36,0.351 0.351,0 0.613,-0.305 0.794,-0.962 h 0.175 l -0.005,0.085 c 0.005,0.995 -0.873,2.632 -2.639,4.912 -0.271,0.505 -0.481,1.072 -0.621,1.769 -0.812,0.151 -1.209,0.464 -1.224,0.953 -1.619,2.675 -4.06,4.592 -7.304,5.698 -0.967,0.239 -1.804,0.343 -2.531,0.343 h -0.876 c -4.299,-0.006 -8.545,-3.111 -12.741,-9.327 l 0.008,-0.17 -0.44,-6.939 0.008,-0.691 c -0.008,-2.899 0.943,-4.716 2.822,-5.453 2.014,-1.106 3.815,-1.673 5.358,-1.657 z m -2.741,8.607 c -0.006,1.758 0.494,2.981 1.499,3.675 0.681,0.011 1.696,-0.521 3.064,-1.572 0.234,-0.688 0.348,-1.249 0.354,-1.763 0,-1.783 -0.778,-3.027 -2.361,-3.677 l -0.706,-0.091 c -0.865,0 -1.316,0.294 -1.304,0.863 -0.371,0.622 -0.546,1.452 -0.546,2.565 z"
   id="path29"
   inkscape:connector-curvature="0"
   style="fill:#fbb034" />
	</g>
	<g
   id="g31">
		<path
   d="m 290.072,406.137 c -0.343,0.013 -0.678,-0.113 -0.942,-0.382 -0.238,-0.236 -0.381,-0.536 -0.397,-0.865 -0.037,-0.366 0.089,-0.676 0.334,-0.934 0.251,-0.258 0.549,-0.387 0.92,-0.387 0.343,-0.021 0.647,0.096 0.905,0.351 0.232,0.242 0.371,0.531 0.388,0.902 0.016,0.351 -0.081,0.652 -0.308,0.904 -0.277,0.256 -0.559,0.4 -0.9,0.411 z m 3.686,-3.005 c -0.307,0.307 -0.673,0.464 -1.108,0.464 -0.45,0.018 -0.818,-0.119 -1.129,-0.412 -0.318,-0.312 -0.47,-0.676 -0.462,-1.104 0.013,-0.423 0.159,-0.78 0.469,-1.095 l 16.99,-17.738 2.236,2.131 -16.996,17.754 z"
   id="path33"
   inkscape:connector-curvature="0"
   style="fill:#0054a4" />
		<path
   d="m 292.595,392.942 c -0.331,0.278 -0.708,0.401 -1.148,0.363 -0.425,-0.044 -0.777,-0.22 -1.051,-0.56 -0.264,-0.296 -0.376,-0.567 -0.396,-0.835 0,-0.266 0.066,-0.5 0.192,-0.739 0.15,-0.206 0.336,-0.436 0.581,-0.629 0.224,-0.209 0.443,-0.405 0.634,-0.564 -0.969,0.116 -1.922,-0.052 -2.859,-0.448 -0.922,-0.428 -1.708,-1.016 -2.356,-1.758 -0.701,-0.814 -1.204,-1.66 -1.484,-2.56 -0.288,-0.884 -0.398,-1.755 -0.3,-2.646 0.087,-0.892 0.363,-1.752 0.815,-2.571 0.46,-0.82 1.091,-1.583 1.897,-2.263 l 8.355,-7.211 c 0.311,-0.271 0.694,-0.41 1.117,-0.371 0.424,0.036 0.774,0.217 1.053,0.546 0.282,0.305 0.365,0.66 0.35,1.067 -0.046,0.412 -0.226,0.752 -0.528,1.023 l -8.357,7.2 c -0.453,0.417 -0.84,0.896 -1.103,1.43 -0.266,0.549 -0.436,1.14 -0.483,1.719 -0.031,0.591 0.016,1.168 0.191,1.771 0.17,0.572 0.456,1.085 0.866,1.577 0.41,0.454 0.879,0.838 1.442,1.078 0.528,0.268 1.097,0.428 1.693,0.445 0.561,0.039 1.127,-0.033 1.691,-0.217 0.582,-0.195 1.104,-0.492 1.571,-0.909 l 9.27,-7.984 1.966,2.273 -13.619,11.773 z"
   id="path35"
   inkscape:connector-curvature="0"
   style="fill:#0054a4" />
		<path
   d="m 274.622,379.531 c -0.32,0.252 -0.712,0.351 -1.162,0.324 -0.445,-0.031 -0.802,-0.224 -1.046,-0.598 -0.241,-0.358 -0.323,-0.753 -0.204,-1.214 0.09,-0.42 0.335,-0.766 0.674,-1.008 l 3.563,-2.417 c -0.139,-0.206 -0.321,-0.464 -0.549,-0.74 -0.197,-0.291 -0.384,-0.579 -0.52,-0.878 -0.143,-0.305 -0.181,-0.604 -0.156,-0.902 0.032,-0.289 0.208,-0.562 0.565,-0.81 0.337,-0.224 0.646,-0.314 0.936,-0.229 0.289,0.074 0.553,0.229 0.768,0.442 0.23,0.222 0.45,0.479 0.642,0.786 0.205,0.305 0.359,0.549 0.502,0.763 l 13.536,-9.422 1.716,2.47 -13.54,9.424 c 0.152,0.206 0.328,0.461 0.524,0.729 0.223,0.255 0.375,0.536 0.486,0.814 0.114,0.294 0.173,0.562 0.126,0.855 -0.021,0.273 -0.192,0.549 -0.548,0.768 -0.323,0.242 -0.624,0.33 -0.907,0.266 -0.257,-0.049 -0.524,-0.186 -0.739,-0.395 -0.246,-0.211 -0.461,-0.448 -0.629,-0.731 -0.186,-0.278 -0.336,-0.525 -0.504,-0.742 l -3.534,2.445 z"
   id="path37"
   inkscape:connector-curvature="0"
   style="fill:#0054a4" />
		<path
   d="m 283.038,360.731 c 0.491,-0.591 0.858,-1.25 1.098,-1.951 0.218,-0.695 0.304,-1.438 0.244,-2.201 -0.053,-0.778 -0.275,-1.492 -0.668,-2.219 -0.327,-0.585 -0.714,-1.139 -1.176,-1.642 -0.47,-0.515 -0.936,-0.992 -1.394,-1.445 l 1.771,-1.775 c 0.682,0.546 1.299,1.1 1.842,1.644 0.525,0.536 1.014,1.19 1.431,1.972 0.704,1.266 1.073,2.502 1.149,3.734 0.042,1.227 -0.124,2.399 -0.559,3.489 -0.43,1.118 -1.067,2.149 -1.938,3.069 -0.874,0.936 -1.885,1.724 -3.062,2.373 -1.078,0.608 -2.252,1.011 -3.484,1.232 -1.25,0.216 -2.434,0.203 -3.59,0 -1.158,-0.222 -2.255,-0.649 -3.236,-1.34 -1.009,-0.66 -1.835,-1.572 -2.477,-2.745 -0.611,-1.11 -0.939,-2.25 -0.958,-3.389 -0.021,-1.157 0.184,-2.255 0.594,-3.299 0.437,-1.046 1.052,-2 1.844,-2.887 0.813,-0.876 1.72,-1.603 2.738,-2.169 0.621,-0.341 1.084,-0.426 1.415,-0.248 0.347,0.165 0.668,0.533 0.992,1.098 l 5.646,10.18 c 0.674,-0.37 1.276,-0.859 1.778,-1.481 z m -8.874,-6.421 c -0.617,0.368 -1.188,0.853 -1.705,1.404 -0.536,0.562 -0.946,1.172 -1.249,1.829 -0.298,0.66 -0.482,1.361 -0.494,2.096 -0.03,0.709 0.156,1.422 0.532,2.115 0.447,0.794 0.979,1.366 1.598,1.737 0.594,0.384 1.272,0.598 1.96,0.69 0.701,0.077 1.428,0.041 2.205,-0.105 0.756,-0.157 1.505,-0.374 2.192,-0.642 l -5.039,-9.124 z"
   id="path39"
   inkscape:connector-curvature="0"
   style="fill:#0054a4" />
		<path
   d="m 264.52,350.418 c -0.399,0.18 -0.784,0.175 -1.177,-0.011 -0.39,-0.173 -0.662,-0.469 -0.813,-0.822 -0.132,-0.324 -0.16,-0.706 -0.067,-1.113 0.099,-0.417 0.34,-0.688 0.694,-0.827 0.311,-0.126 0.594,-0.242 0.873,-0.33 0.291,-0.085 0.576,-0.195 0.874,-0.291 -0.384,0.042 -0.791,0.011 -1.237,-0.072 -0.443,-0.057 -0.879,-0.186 -1.296,-0.35 -0.423,-0.171 -0.786,-0.387 -1.129,-0.66 -0.325,-0.269 -0.587,-0.593 -0.741,-0.964 -0.187,-0.459 -0.2,-0.895 -0.051,-1.327 0.146,-0.438 0.467,-0.755 0.89,-0.938 0.389,-0.165 0.73,-0.165 1.026,0.008 0.303,0.149 0.606,0.374 0.928,0.655 0.321,0.307 0.671,0.61 1.057,0.942 0.402,0.349 0.907,0.608 1.455,0.794 0.572,0.155 1.247,0.237 2.04,0.184 0.808,-0.044 1.77,-0.302 2.899,-0.766 l 9.16,-3.822 1.192,2.797 -16.577,6.913 z"
   id="path41"
   inkscape:connector-curvature="0"
   style="fill:#0054a4" />
		<path
   d="m 259.462,337.942 c -0.416,0.115 -0.808,0.062 -1.167,-0.16 -0.38,-0.227 -0.621,-0.544 -0.733,-0.961 -0.11,-0.366 -0.089,-0.686 0.005,-0.912 0.123,-0.242 0.27,-0.428 0.506,-0.58 0.217,-0.152 0.474,-0.276 0.773,-0.354 0.291,-0.072 0.572,-0.157 0.829,-0.222 -0.927,-0.312 -1.721,-0.863 -2.373,-1.642 -0.668,-0.772 -1.118,-1.62 -1.388,-2.574 -0.284,-1.044 -0.38,-2.018 -0.254,-2.948 0.119,-0.933 0.41,-1.788 0.879,-2.533 0.455,-0.773 1.058,-1.43 1.837,-1.964 0.767,-0.53 1.66,-0.961 2.684,-1.229 l 10.646,-2.923 c 0.403,-0.124 0.797,-0.075 1.176,0.145 0.347,0.208 0.589,0.513 0.715,0.94 0.098,0.392 0.058,0.753 -0.181,1.108 -0.19,0.357 -0.496,0.603 -0.894,0.716 l -10.636,2.912 c -0.583,0.168 -1.15,0.438 -1.62,0.814 -0.49,0.369 -0.867,0.827 -1.165,1.346 -0.281,0.505 -0.5,1.054 -0.581,1.651 -0.098,0.601 -0.065,1.209 0.113,1.807 0.157,0.601 0.423,1.14 0.807,1.608 0.382,0.464 0.826,0.84 1.329,1.108 0.52,0.304 1.067,0.479 1.666,0.559 0.588,0.064 1.183,0.008 1.772,-0.149 l 11.818,-3.247 0.792,2.92 -17.355,4.764 z"
   id="path43"
   inkscape:connector-curvature="0"
   style="fill:#0054a4" />
		<path
   d="m 252.849,304.371 c -0.299,0.031 -0.564,0.001 -0.792,-0.038 -0.271,-0.068 -0.483,-0.192 -0.654,-0.382 -0.185,-0.217 -0.292,-0.522 -0.344,-0.933 -0.058,-0.424 0.053,-0.761 0.344,-1.085 0.265,-0.308 0.589,-0.474 0.984,-0.515 l 17.984,-2.125 0.347,3.029 -2.739,0.329 c 1.039,0.451 1.852,1.105 2.445,2.004 0.608,0.876 0.972,1.884 1.111,3.006 0.163,1.347 0.017,2.578 -0.437,3.687 -0.454,1.101 -1.104,2.052 -1.945,2.845 -0.835,0.794 -1.844,1.443 -2.974,1.928 -1.137,0.495 -2.317,0.835 -3.564,0.97 -1.21,0.144 -2.413,0.095 -3.635,-0.119 -1.21,-0.247 -2.309,-0.654 -3.314,-1.244 -0.984,-0.591 -1.823,-1.363 -2.539,-2.333 -0.68,-0.945 -1.097,-2.098 -1.265,-3.422 -0.116,-1.044 -0.023,-2.062 0.3,-3.043 0.314,-1.006 0.86,-1.871 1.602,-2.657 -0.31,0.049 -0.61,0.082 -0.915,0.098 z m 11.875,8.963 c 0.857,-0.297 1.611,-0.663 2.254,-1.168 0.665,-0.497 1.165,-1.093 1.547,-1.824 0.367,-0.734 0.474,-1.577 0.371,-2.556 -0.133,-1.081 -0.45,-1.929 -0.972,-2.577 -0.543,-0.625 -1.197,-1.099 -1.948,-1.389 -0.769,-0.335 -1.592,-0.501 -2.502,-0.537 -0.913,-0.044 -1.812,0 -2.724,0.122 -0.821,0.08 -1.617,0.245 -2.433,0.52 -0.808,0.246 -1.513,0.599 -2.138,1.068 -0.585,0.475 -1.079,1.057 -1.406,1.751 -0.357,0.706 -0.454,1.557 -0.344,2.562 0.108,0.989 0.43,1.788 0.933,2.407 0.515,0.654 1.124,1.149 1.87,1.5 0.751,0.345 1.547,0.564 2.442,0.662 0.84,0.116 1.701,0.105 2.518,0.008 0.843,-0.106 1.694,-0.281 2.532,-0.549 z"
   id="path45"
   inkscape:connector-curvature="0"
   style="fill:#0054a4" />
		<path
   d="m 246.787,293.739 c -0.399,0.014 -0.786,-0.117 -1.142,-0.388 -0.337,-0.271 -0.527,-0.624 -0.527,-1.089 -0.011,-0.436 0.157,-0.807 0.5,-1.097 0.337,-0.308 0.705,-0.462 1.131,-0.462 l 4.309,-0.032 c -0.013,-0.251 -0.02,-0.535 -0.036,-0.906 -0.021,-0.354 0,-0.695 0.062,-1.02 0.051,-0.322 0.166,-0.592 0.354,-0.83 0.198,-0.229 0.5,-0.352 0.937,-0.352 0.408,-0.005 0.7,0.096 0.906,0.322 0.178,0.211 0.324,0.498 0.389,0.803 0.053,0.303 0.094,0.641 0.073,1.001 -0.011,0.351 -0.003,0.656 0.005,0.904 l 16.489,-0.25 0.042,3.015 -16.492,0.254 c 0.021,0.245 0.013,0.553 0.024,0.899 0.032,0.322 0.001,0.651 -0.048,0.938 -0.057,0.303 -0.174,0.568 -0.367,0.782 -0.19,0.214 -0.483,0.333 -0.892,0.333 -0.41,0.014 -0.7,-0.087 -0.899,-0.29 -0.197,-0.194 -0.329,-0.452 -0.416,-0.749 -0.067,-0.294 -0.093,-0.621 -0.103,-0.95 0.01,-0.333 0.004,-0.634 0.004,-0.876 l -4.303,0.04 z"
   id="path47"
   inkscape:connector-curvature="0"
   style="fill:#0054a4" />
		<path
   d="m 245.952,282.069 c -0.223,-0.267 -0.354,-0.598 -0.325,-0.967 0.032,-0.352 0.179,-0.626 0.437,-0.874 0.247,-0.242 0.57,-0.362 0.927,-0.343 0.351,0.031 0.652,0.182 0.881,0.443 0.232,0.282 0.333,0.585 0.311,0.951 -0.024,0.339 -0.17,0.62 -0.436,0.875 -0.263,0.245 -0.568,0.36 -0.905,0.325 -0.363,-0.039 -0.654,-0.166 -0.89,-0.41 z m 6.607,1.005 c -0.455,-0.042 -0.799,-0.222 -1.067,-0.55 -0.242,-0.344 -0.357,-0.712 -0.327,-1.154 0.04,-0.384 0.208,-0.728 0.531,-0.969 0.332,-0.258 0.701,-0.372 1.081,-0.344 l 17.952,1.263 -0.209,3.021 -17.961,-1.267 z"
   id="path49"
   inkscape:connector-curvature="0"
   style="fill:#0054a4" />
		<path
   d="m 257.755,275.446 c -1.089,-0.572 -2.028,-1.31 -2.833,-2.173 -0.782,-0.853 -1.358,-1.871 -1.742,-2.998 -0.363,-1.139 -0.442,-2.353 -0.208,-3.687 0.236,-1.318 0.715,-2.446 1.465,-3.402 0.709,-0.92 1.609,-1.667 2.639,-2.223 1.031,-0.552 2.162,-0.91 3.385,-1.089 1.24,-0.17 2.465,-0.157 3.688,0.061 1.218,0.21 2.375,0.599 3.494,1.175 1.121,0.564 2.084,1.29 2.887,2.171 0.8,0.858 1.406,1.858 1.79,3.005 0.389,1.141 0.464,2.37 0.246,3.674 -0.25,1.345 -0.733,2.485 -1.497,3.443 -0.731,0.93 -1.634,1.682 -2.708,2.243 -1.044,0.556 -2.193,0.901 -3.436,1.058 -1.242,0.183 -2.477,0.139 -3.711,-0.066 -1.197,-0.216 -2.357,-0.602 -3.459,-1.192 z m 6.519,-1.847 c 0.873,-0.027 1.7,-0.206 2.486,-0.483 0.76,-0.285 1.442,-0.71 2.003,-1.281 0.546,-0.577 0.931,-1.312 1.071,-2.233 0.192,-0.965 0.114,-1.821 -0.205,-2.572 -0.324,-0.756 -0.8,-1.385 -1.419,-1.916 -0.63,-0.546 -1.345,-0.972 -2.162,-1.311 -0.814,-0.347 -1.648,-0.573 -2.469,-0.726 -0.796,-0.137 -1.646,-0.188 -2.519,-0.146 -0.871,0.044 -1.679,0.214 -2.425,0.533 -0.742,0.294 -1.385,0.739 -1.937,1.338 -0.557,0.585 -0.915,1.345 -1.079,2.3 -0.152,0.897 -0.053,1.727 0.271,2.448 0.325,0.754 0.8,1.366 1.433,1.899 0.617,0.541 1.33,0.977 2.114,1.297 0.803,0.344 1.594,0.576 2.371,0.71 0.775,0.139 1.601,0.186 2.466,0.143 z"
   id="path51"
   inkscape:connector-curvature="0"
   style="fill:#0054a4" />
		<path
   d="m 257.32,253.254 c -0.433,-0.137 -0.715,-0.41 -0.907,-0.774 -0.197,-0.426 -0.211,-0.815 -0.072,-1.215 0.122,-0.356 0.277,-0.629 0.521,-0.763 0.205,-0.135 0.461,-0.2 0.72,-0.2 0.27,0 0.534,0.039 0.847,0.148 0.285,0.095 0.563,0.186 0.808,0.256 -0.589,-0.772 -0.948,-1.678 -1.075,-2.674 -0.116,-1.022 -0.017,-2.007 0.283,-2.92 0.347,-1.015 0.817,-1.876 1.425,-2.59 0.621,-0.706 1.333,-1.242 2.13,-1.617 0.818,-0.389 1.671,-0.581 2.624,-0.622 0.952,-0.021 1.93,0.14 2.916,0.468 l 10.479,3.466 c 0.402,0.13 0.7,0.396 0.892,0.773 0.186,0.384 0.226,0.768 0.074,1.166 -0.13,0.396 -0.377,0.69 -0.748,0.854 -0.367,0.183 -0.747,0.211 -1.144,0.08 l -10.46,-3.465 c -0.601,-0.192 -1.198,-0.282 -1.797,-0.222 -0.623,0.044 -1.188,0.205 -1.719,0.468 -0.526,0.267 -0.991,0.637 -1.417,1.068 -0.41,0.446 -0.714,0.962 -0.903,1.565 -0.205,0.585 -0.264,1.17 -0.218,1.778 0.046,0.6 0.218,1.148 0.482,1.662 0.278,0.526 0.635,0.984 1.091,1.375 0.439,0.377 0.965,0.68 1.567,0.88 l 11.616,3.848 -0.951,2.874 -17.064,-5.667 z"
   id="path53"
   inkscape:connector-curvature="0"
   style="fill:#0054a4" />
		<path
   d="m 270.418,221.656 c -0.273,-0.153 -0.478,-0.308 -0.659,-0.505 -0.175,-0.161 -0.296,-0.399 -0.326,-0.654 -0.036,-0.276 0.037,-0.597 0.242,-0.972 0.179,-0.376 0.469,-0.605 0.874,-0.704 0.402,-0.112 0.786,-0.073 1.116,0.109 l 16.152,8.218 -1.407,2.719 -2.467,-1.276 c 0.629,0.97 0.939,1.99 0.956,3.051 0,1.068 -0.258,2.103 -0.777,3.116 -0.615,1.201 -1.407,2.154 -2.393,2.807 -0.992,0.69 -2.05,1.108 -3.201,1.309 -1.144,0.189 -2.339,0.175 -3.543,-0.036 -1.219,-0.224 -2.399,-0.611 -3.491,-1.173 -1.104,-0.554 -2.092,-1.267 -2.959,-2.128 -0.879,-0.869 -1.566,-1.825 -2.064,-2.866 -0.502,-1.049 -0.79,-2.166 -0.833,-3.345 -0.034,-1.178 0.251,-2.367 0.857,-3.56 0.479,-0.948 1.113,-1.73 1.934,-2.379 0.805,-0.66 1.745,-1.081 2.805,-1.302 -0.289,-0.141 -0.566,-0.288 -0.816,-0.429 z m 4.915,14.029 c 0.856,0.242 1.695,0.349 2.514,0.299 0.808,-0.053 1.579,-0.271 2.295,-0.67 0.722,-0.402 1.278,-1.043 1.732,-1.925 0.49,-0.952 0.694,-1.848 0.581,-2.674 -0.066,-0.84 -0.352,-1.573 -0.79,-2.249 -0.478,-0.679 -1.076,-1.303 -1.8,-1.833 -0.74,-0.531 -1.508,-1.012 -2.341,-1.42 -0.719,-0.367 -1.48,-0.661 -2.321,-0.91 -0.812,-0.254 -1.591,-0.342 -2.364,-0.284 -0.762,0.048 -1.483,0.274 -2.157,0.671 -0.676,0.391 -1.24,1.036 -1.686,1.937 -0.45,0.874 -0.642,1.729 -0.568,2.539 0.069,0.819 0.311,1.571 0.739,2.273 0.436,0.692 0.965,1.337 1.641,1.893 0.648,0.573 1.364,1.06 2.105,1.429 0.763,0.375 1.562,0.699 2.42,0.924 z"
   id="path55"
   inkscape:connector-curvature="0"
   style="fill:#0054a4" />
		<path
   d="m 267.174,210.336 c -0.357,-0.229 -0.598,-0.544 -0.693,-0.954 -0.124,-0.41 -0.036,-0.804 0.181,-1.17 0.229,-0.363 0.557,-0.576 0.966,-0.66 0.416,-0.071 0.819,0 1.176,0.244 l 22.316,14.235 -1.595,2.576 -22.351,-14.271 z"
   id="path57"
   inkscape:connector-curvature="0"
   style="fill:#0054a4" />
		<path
   d="m 286.979,197.511 c -0.866,-1.476 -1.394,-3.009 -1.672,-4.551 -0.237,-1.559 -0.126,-3.11 0.311,-4.665 0.455,-1.563 1.349,-3.055 2.703,-4.435 0.49,-0.527 1.066,-0.986 1.742,-1.408 0.652,-0.405 1.345,-0.728 2.093,-0.994 0.751,-0.238 1.488,-0.38 2.268,-0.424 0.754,-0.049 1.509,0.047 2.228,0.259 l -0.093,2.411 c -0.639,0.042 -1.255,0.087 -1.817,0.122 -0.555,0.042 -1.085,0.16 -1.581,0.314 -0.49,0.171 -0.997,0.414 -1.46,0.706 -0.45,0.308 -0.92,0.692 -1.41,1.206 -0.982,1.022 -1.606,2.104 -1.836,3.254 -0.249,1.166 -0.24,2.312 0.014,3.481 0.268,1.144 0.746,2.263 1.416,3.36 0.679,1.068 1.448,2.018 2.34,2.863 0.917,0.899 1.937,1.639 3.037,2.268 1.139,0.652 2.281,1.045 3.466,1.245 1.176,0.184 2.359,0.104 3.513,-0.248 1.175,-0.34 2.252,-1.036 3.244,-2.071 0.647,-0.67 1.124,-1.33 1.435,-2.019 0.323,-0.676 0.568,-1.292 0.707,-1.859 0.157,-0.573 0.278,-1.081 0.336,-1.511 0.073,-0.415 0.208,-0.714 0.384,-0.913 0.285,-0.303 0.629,-0.434 1.039,-0.403 0.42,0.03 0.76,0.193 1.058,0.467 0.336,0.329 0.508,0.729 0.479,1.185 -0.021,0.455 -0.064,0.891 -0.139,1.304 -0.163,1.087 -0.572,2.122 -1.193,3.14 -0.633,1.005 -1.317,1.898 -2.053,2.68 -1.287,1.333 -2.689,2.278 -4.189,2.826 -1.509,0.553 -3.035,0.75 -4.555,0.633 -1.549,-0.117 -3.074,-0.559 -4.55,-1.289 -1.503,-0.727 -2.875,-1.696 -4.097,-2.892 -1.278,-1.206 -2.33,-2.561 -3.168,-4.042 z"
   id="path59"
   inkscape:connector-curvature="0"
   style="fill:#0054a4" />
		<path
   d="m 298.964,173.696 c -0.257,-0.345 -0.355,-0.742 -0.307,-1.175 0.045,-0.417 0.246,-0.759 0.585,-1.013 0.337,-0.271 0.727,-0.359 1.144,-0.295 0.412,0.085 0.749,0.281 0.993,0.604 l 5.703,7.53 c -0.033,-1.002 0.192,-1.947 0.665,-2.837 0.439,-0.901 1.093,-1.653 1.886,-2.25 0.865,-0.661 1.736,-1.079 2.633,-1.307 0.911,-0.215 1.791,-0.238 2.67,-0.09 0.866,0.161 1.712,0.501 2.521,1.017 0.785,0.505 1.488,1.174 2.105,1.987 l 6.655,8.753 c 0.245,0.358 0.354,0.727 0.294,1.166 -0.049,0.42 -0.25,0.752 -0.601,1.01 -0.317,0.244 -0.688,0.335 -1.104,0.278 -0.404,-0.066 -0.733,-0.263 -0.985,-0.585 l -6.667,-8.792 c -0.37,-0.504 -0.822,-0.899 -1.357,-1.188 -0.521,-0.32 -1.08,-0.521 -1.661,-0.594 -0.58,-0.087 -1.152,-0.071 -1.752,0.066 -0.593,0.121 -1.136,0.384 -1.62,0.773 -0.49,0.371 -0.899,0.815 -1.193,1.336 -0.295,0.531 -0.486,1.071 -0.56,1.651 -0.046,0.585 -0.025,1.164 0.114,1.747 0.144,0.581 0.403,1.133 0.797,1.624 l 7.414,9.791 -2.407,1.837 -15.965,-21.044 z"
   id="path61"
   inkscape:connector-curvature="0"
   style="fill:#0054a4" />
		<path
   d="m 317.09,162.822 c 0.066,-0.333 0.262,-0.617 0.602,-0.807 0.293,-0.178 0.604,-0.234 0.944,-0.178 0.347,0.062 0.617,0.271 0.796,0.564 0.208,0.295 0.256,0.642 0.179,0.979 -0.085,0.34 -0.273,0.616 -0.585,0.805 -0.289,0.166 -0.616,0.216 -0.952,0.149 -0.359,-0.084 -0.632,-0.249 -0.813,-0.55 -0.191,-0.295 -0.237,-0.614 -0.171,-0.962 z m 3.045,5.947 c -0.232,-0.397 -0.292,-0.768 -0.167,-1.175 0.114,-0.399 0.354,-0.698 0.718,-0.937 0.34,-0.204 0.714,-0.25 1.117,-0.131 0.393,0.104 0.7,0.336 0.903,0.662 l 9.474,15.309 -2.565,1.583 -9.48,-15.311 z"
   id="path63"
   inkscape:connector-curvature="0"
   style="fill:#0054a4" />
		<path
   d="m 322.274,157.61 c -0.205,-0.37 -0.282,-0.77 -0.168,-1.179 0.107,-0.411 0.343,-0.714 0.711,-0.934 0.384,-0.202 0.772,-0.241 1.184,-0.107 0.391,0.135 0.692,0.384 0.899,0.764 l 12.812,23.181 -2.617,1.496 -12.821,-23.221 z"
   id="path65"
   inkscape:connector-curvature="0"
   style="fill:#0054a4" />
		<path
   d="m 342.177,146.988 2.809,-1.177 10.236,24.217 c 0.152,0.375 0.152,0.748 0,1.141 -0.16,0.403 -0.417,0.668 -0.814,0.828 -0.417,0.164 -0.771,0.215 -1.037,0.128 -0.289,-0.128 -0.512,-0.288 -0.708,-0.538 -0.192,-0.237 -0.363,-0.524 -0.499,-0.844 -0.13,-0.336 -0.273,-0.653 -0.401,-0.938 -0.179,1.154 -0.621,2.149 -1.315,3.019 -0.715,0.842 -1.603,1.488 -2.674,1.947 -1.169,0.498 -2.363,0.669 -3.505,0.524 -1.16,-0.156 -2.228,-0.524 -3.216,-1.115 -1.005,-0.596 -1.904,-1.366 -2.677,-2.304 -0.79,-0.939 -1.419,-1.94 -1.859,-2.995 -0.471,-1.153 -0.785,-2.352 -0.905,-3.598 -0.142,-1.253 -0.061,-2.443 0.245,-3.583 0.271,-1.126 0.807,-2.172 1.554,-3.083 0.754,-0.939 1.755,-1.666 3.021,-2.187 1.01,-0.437 2.049,-0.616 3.09,-0.511 1.056,0.079 2.026,0.45 2.892,1.113 l -4.237,-10.044 z m 6.803,23.57 c 0.456,-0.621 0.781,-1.285 0.932,-2.024 0.16,-0.723 0.184,-1.49 0.053,-2.293 -0.111,-0.807 -0.343,-1.603 -0.666,-2.376 -0.335,-0.768 -0.728,-1.531 -1.205,-2.284 -0.462,-0.775 -1.01,-1.411 -1.643,-1.925 -0.625,-0.538 -1.339,-0.871 -2.143,-1.038 -0.782,-0.179 -1.668,-0.053 -2.64,0.371 -0.873,0.356 -1.522,0.865 -1.991,1.518 -0.482,0.642 -0.773,1.388 -0.917,2.161 -0.149,0.803 -0.17,1.59 -0.027,2.456 0.138,0.83 0.36,1.629 0.682,2.37 0.296,0.744 0.708,1.452 1.206,2.169 0.499,0.707 1.054,1.304 1.714,1.764 0.663,0.468 1.367,0.777 2.157,0.936 0.777,0.133 1.606,0.028 2.473,-0.339 0.875,-0.375 1.545,-0.848 2.015,-1.466 z"
   id="path67"
   inkscape:connector-curvature="0"
   style="fill:#0054a4" />
		<path
   d="m 353.416,153.234 c -0.119,-0.407 -0.089,-0.804 0.139,-1.179 0.212,-0.345 0.523,-0.596 0.907,-0.706 0.355,-0.103 0.711,-0.089 1.097,0.042 0.403,0.139 0.642,0.389 0.764,0.778 0.097,0.301 0.167,0.596 0.221,0.884 0.086,0.312 0.13,0.593 0.233,0.907 -0.013,-0.377 0.058,-0.78 0.159,-1.228 0.131,-0.428 0.29,-0.839 0.495,-1.233 0.209,-0.415 0.47,-0.778 0.777,-1.078 0.307,-0.298 0.643,-0.521 1.035,-0.621 0.466,-0.147 0.908,-0.123 1.328,0.085 0.42,0.19 0.688,0.512 0.843,0.965 0.103,0.411 0.077,0.741 -0.119,1.021 -0.182,0.28 -0.439,0.561 -0.741,0.846 -0.334,0.286 -0.666,0.613 -1.059,0.978 -0.371,0.358 -0.682,0.823 -0.914,1.36 -0.231,0.531 -0.365,1.223 -0.403,2.015 -0.031,0.808 0.139,1.79 0.476,2.948 l 2.869,9.496 -2.913,0.928 -5.194,-17.208 z"
   id="path69"
   inkscape:connector-curvature="0"
   style="fill:#0054a4" />
		<path
   d="m 369.151,161.147 c 0.411,0.667 0.915,1.224 1.507,1.652 0.572,0.437 1.24,0.743 1.991,0.948 0.76,0.204 1.521,0.218 2.313,0.049 0.655,-0.097 1.3,-0.297 1.955,-0.587 0.617,-0.276 1.219,-0.554 1.8,-0.869 l 1.107,2.242 c -0.728,0.487 -1.443,0.898 -2.138,1.219 -0.667,0.344 -1.448,0.593 -2.307,0.753 -1.43,0.257 -2.719,0.22 -3.908,-0.101 -1.174,-0.334 -2.235,-0.874 -3.15,-1.627 -0.929,-0.768 -1.682,-1.7 -2.287,-2.809 -0.608,-1.112 -1.037,-2.337 -1.279,-3.666 -0.236,-1.205 -0.254,-2.449 -0.063,-3.694 0.182,-1.246 0.566,-2.367 1.135,-3.403 0.575,-1.028 1.341,-1.917 2.304,-2.664 0.929,-0.737 2.058,-1.233 3.381,-1.467 1.263,-0.222 2.43,-0.159 3.51,0.179 1.123,0.336 2.093,0.883 2.95,1.612 0.852,0.742 1.563,1.61 2.164,2.665 0.561,1.03 0.977,2.127 1.178,3.274 0.135,0.69 0.053,1.156 -0.214,1.417 -0.253,0.292 -0.708,0.472 -1.355,0.588 l -11.452,2.12 c 0.164,0.794 0.432,1.498 0.858,2.169 z m 8.899,-6.373 c -0.155,-0.711 -0.423,-1.405 -0.781,-2.077 -0.376,-0.683 -0.818,-1.258 -1.361,-1.749 -0.521,-0.501 -1.134,-0.891 -1.819,-1.127 -0.666,-0.266 -1.407,-0.306 -2.19,-0.169 -0.889,0.169 -1.603,0.497 -2.152,0.942 -0.545,0.468 -0.969,1.036 -1.276,1.674 -0.285,0.63 -0.464,1.336 -0.58,2.098 -0.107,0.782 -0.141,1.563 -0.089,2.3 l 10.248,-1.892 z"
   id="path71"
   inkscape:connector-curvature="0"
   style="fill:#0054a4" />
		<path
   d="m 385.181,146.582 c -0.016,-0.438 0.136,-0.799 0.43,-1.122 0.296,-0.308 0.671,-0.452 1.101,-0.488 0.384,0 0.675,0.063 0.882,0.225 0.209,0.167 0.384,0.364 0.455,0.625 0.09,0.24 0.143,0.516 0.164,0.821 0.006,0.314 0.013,0.607 0.013,0.865 0.529,-0.83 1.25,-1.477 2.155,-1.943 0.902,-0.469 1.845,-0.737 2.843,-0.753 1.071,-0.039 2.036,0.111 2.902,0.435 0.886,0.318 1.647,0.807 2.268,1.417 0.634,0.631 1.139,1.393 1.494,2.262 0.346,0.862 0.528,1.831 0.596,2.889 l 0.389,11.011 c 0.013,0.444 -0.124,0.805 -0.396,1.126 -0.305,0.312 -0.66,0.477 -1.08,0.486 -0.415,0.017 -0.766,-0.115 -1.062,-0.415 -0.283,-0.294 -0.45,-0.63 -0.469,-1.051 l -0.423,-10.999 c 0,-0.638 -0.147,-1.219 -0.411,-1.782 -0.248,-0.551 -0.607,-1.031 -1.035,-1.44 -0.436,-0.398 -0.942,-0.712 -1.502,-0.943 -0.55,-0.226 -1.141,-0.333 -1.766,-0.315 -0.609,0.024 -1.198,0.152 -1.753,0.415 -0.524,0.267 -1.005,0.612 -1.386,1.045 -0.398,0.438 -0.682,0.933 -0.899,1.487 -0.207,0.557 -0.302,1.153 -0.282,1.774 l 0.439,12.258 -3.001,0.098 -0.666,-17.988 z"
   id="path73"
   inkscape:connector-curvature="0"
   style="fill:#0054a4" />
		<path
   d="m 408.228,138.639 2.265,0.145 -1.28,8.017 -2.269,-0.159 1.284,-8.003 z"
   id="path75"
   inkscape:connector-curvature="0"
   style="fill:#0054a4" />
		<path
   d="m 414.722,160.327 c 0.399,0.402 0.768,0.778 1.113,1.122 0.358,0.349 0.686,0.656 1.046,0.948 0.348,0.263 0.753,0.51 1.181,0.686 0.425,0.203 0.945,0.358 1.574,0.455 0.395,0.065 0.81,0.077 1.286,0.031 0.443,-0.05 0.876,-0.166 1.268,-0.354 0.395,-0.187 0.74,-0.438 1.031,-0.743 0.299,-0.31 0.469,-0.686 0.566,-1.161 0.108,-0.656 -0.066,-1.249 -0.51,-1.76 -0.428,-0.506 -0.984,-0.991 -1.681,-1.471 -0.67,-0.45 -1.438,-0.921 -2.277,-1.361 -0.833,-0.462 -1.593,-0.955 -2.255,-1.539 -0.684,-0.547 -1.229,-1.188 -1.627,-1.892 -0.406,-0.71 -0.543,-1.54 -0.365,-2.481 0.134,-0.858 0.443,-1.566 0.943,-2.151 0.502,-0.559 1.082,-1.024 1.777,-1.36 0.699,-0.33 1.426,-0.542 2.219,-0.652 0.781,-0.102 1.562,-0.087 2.322,0.03 0.423,0.085 0.984,0.236 1.681,0.465 0.68,0.254 1.345,0.549 2.007,0.924 0.663,0.38 1.209,0.795 1.642,1.268 0.459,0.481 0.624,0.991 0.542,1.539 -0.06,0.349 -0.237,0.645 -0.516,0.898 -0.312,0.237 -0.668,0.315 -1.064,0.259 -0.261,-0.053 -0.539,-0.197 -0.84,-0.434 -0.299,-0.241 -0.637,-0.516 -1.023,-0.834 -0.399,-0.301 -0.824,-0.599 -1.304,-0.872 -0.511,-0.274 -1.055,-0.446 -1.67,-0.564 -0.366,-0.045 -0.771,-0.073 -1.186,-0.044 -0.397,0.039 -0.773,0.128 -1.113,0.296 -0.343,0.141 -0.629,0.377 -0.871,0.67 -0.242,0.267 -0.405,0.645 -0.467,1.063 -0.098,0.531 0.085,0.992 0.544,1.422 0.451,0.428 1.031,0.863 1.711,1.314 0.686,0.458 1.459,0.925 2.278,1.406 0.835,0.48 1.572,1.019 2.247,1.627 0.66,0.613 1.196,1.293 1.593,2.084 0.387,0.786 0.497,1.66 0.338,2.657 -0.147,0.917 -0.519,1.701 -1.031,2.304 -0.528,0.617 -1.188,1.101 -1.936,1.459 -0.757,0.339 -1.551,0.565 -2.427,0.656 -0.861,0.079 -1.696,0.043 -2.495,-0.088 -0.621,-0.089 -1.242,-0.251 -1.871,-0.5 -0.618,-0.232 -1.237,-0.533 -1.819,-0.877 -0.572,-0.347 -1.129,-0.761 -1.618,-1.242 -0.49,-0.455 -0.892,-0.969 -1.19,-1.502 l 2.247,-1.701 z"
   id="path77"
   inkscape:connector-curvature="0"
   style="fill:#0054a4" />
		<path
   d="m 445.816,154.117 c 1.077,-1.317 2.299,-2.379 3.649,-3.198 1.36,-0.773 2.85,-1.258 4.471,-1.407 1.604,-0.143 3.317,0.17 5.116,0.909 0.659,0.271 1.309,0.646 1.917,1.113 0.618,0.46 1.178,0.992 1.695,1.603 0.516,0.594 0.912,1.236 1.234,1.954 0.297,0.694 0.503,1.42 0.542,2.18 l -2.286,0.798 c -0.25,-0.611 -0.531,-1.161 -0.766,-1.664 -0.235,-0.503 -0.533,-0.969 -0.863,-1.347 -0.343,-0.408 -0.747,-0.79 -1.181,-1.107 -0.451,-0.325 -1,-0.629 -1.649,-0.898 -1.309,-0.54 -2.53,-0.714 -3.7,-0.531 -1.154,0.193 -2.229,0.631 -3.214,1.281 -0.972,0.67 -1.853,1.527 -2.61,2.541 -0.755,1.013 -1.376,2.083 -1.846,3.213 -0.484,1.171 -0.829,2.412 -1.02,3.67 -0.163,1.279 -0.127,2.495 0.128,3.657 0.243,1.179 0.748,2.241 1.492,3.21 0.745,0.942 1.771,1.708 3.101,2.271 0.868,0.353 1.675,0.555 2.417,0.594 0.732,0.061 1.407,0.057 1.979,-0.007 0.601,-0.089 1.098,-0.156 1.525,-0.239 0.42,-0.079 0.75,-0.075 0.995,0.028 0.366,0.166 0.634,0.43 0.763,0.825 0.124,0.378 0.104,0.769 -0.049,1.154 -0.193,0.427 -0.498,0.719 -0.934,0.863 -0.445,0.156 -0.873,0.263 -1.262,0.358 -1.075,0.223 -2.212,0.234 -3.369,0.018 -1.164,-0.211 -2.249,-0.544 -3.249,-0.95 -1.701,-0.71 -3.088,-1.66 -4.146,-2.874 -1.062,-1.2 -1.804,-2.545 -2.247,-4.028 -0.443,-1.479 -0.593,-3.043 -0.449,-4.702 0.143,-1.649 0.552,-3.271 1.201,-4.875 0.678,-1.611 1.551,-3.077 2.615,-4.413 z"
   id="path79"
   inkscape:connector-curvature="0"
   style="fill:#0054a4" />
		<path
   d="m 478.543,170.434 c 0.172,-0.236 0.348,-0.452 0.559,-0.62 0.196,-0.152 0.407,-0.24 0.67,-0.262 0.292,-0.017 0.583,0.088 0.946,0.31 0.355,0.219 0.59,0.519 0.642,0.94 0.069,0.403 0,0.773 -0.188,1.095 l -9.507,15.419 -2.587,-1.599 1.44,-2.351 c -1.005,0.531 -2.03,0.76 -3.105,0.678 -1.062,-0.071 -2.072,-0.406 -3.022,-0.991 -1.165,-0.726 -2.052,-1.603 -2.64,-2.64 -0.574,-1.035 -0.912,-2.125 -1.013,-3.291 -0.113,-1.142 0,-2.332 0.305,-3.523 0.322,-1.196 0.814,-2.331 1.469,-3.402 0.642,-1.035 1.428,-1.966 2.366,-2.765 0.92,-0.797 1.914,-1.422 3.015,-1.822 1.077,-0.414 2.208,-0.601 3.376,-0.562 1.193,0.066 2.351,0.436 3.494,1.157 0.897,0.542 1.647,1.241 2.219,2.113 0.586,0.857 0.936,1.826 1.06,2.894 0.158,-0.287 0.338,-0.529 0.501,-0.778 z m -14.386,3.771 c -0.307,0.83 -0.477,1.667 -0.481,2.47 -0.036,0.827 0.134,1.589 0.464,2.333 0.348,0.76 0.943,1.388 1.788,1.896 0.895,0.576 1.783,0.838 2.61,0.82 0.83,-0.026 1.608,-0.248 2.302,-0.638 0.731,-0.41 1.379,-0.953 1.972,-1.649 0.601,-0.678 1.123,-1.415 1.601,-2.201 0.435,-0.686 0.799,-1.442 1.103,-2.225 0.312,-0.799 0.459,-1.59 0.464,-2.352 0.021,-0.766 -0.152,-1.495 -0.484,-2.2 -0.335,-0.715 -0.938,-1.315 -1.797,-1.854 -0.84,-0.504 -1.659,-0.77 -2.491,-0.766 -0.814,0.005 -1.588,0.196 -2.314,0.563 -0.706,0.36 -1.39,0.856 -2.025,1.481 -0.629,0.616 -1.149,1.268 -1.585,1.983 -0.444,0.717 -0.815,1.49 -1.127,2.339 z"
   id="path81"
   inkscape:connector-curvature="0"
   style="fill:#0054a4" />
		<path
   d="m 485.558,175.087 c 0.258,-0.33 0.616,-0.525 1.044,-0.554 0.433,-0.009 0.816,0.104 1.139,0.371 0.299,0.236 0.489,0.505 0.516,0.754 0.062,0.259 0.025,0.515 -0.067,0.778 -0.098,0.218 -0.231,0.472 -0.448,0.711 -0.201,0.245 -0.355,0.48 -0.539,0.66 0.941,-0.271 1.895,-0.267 2.895,-0.021 0.984,0.26 1.835,0.691 2.607,1.335 0.814,0.69 1.454,1.46 1.887,2.269 0.436,0.836 0.688,1.697 0.727,2.576 0.072,0.892 -0.066,1.768 -0.381,2.676 -0.312,0.871 -0.814,1.73 -1.495,2.536 l -7.04,8.471 c -0.299,0.337 -0.64,0.53 -1.062,0.559 -0.414,0.036 -0.812,-0.083 -1.134,-0.352 -0.312,-0.263 -0.489,-0.598 -0.51,-1.005 -0.026,-0.414 0.08,-0.786 0.355,-1.093 l 7.062,-8.486 c 0.392,-0.473 0.672,-1.008 0.865,-1.59 0.155,-0.576 0.22,-1.183 0.176,-1.765 -0.062,-0.591 -0.222,-1.165 -0.484,-1.7 -0.273,-0.55 -0.637,-1.031 -1.129,-1.426 -0.464,-0.389 -0.987,-0.678 -1.562,-0.853 -0.569,-0.157 -1.16,-0.216 -1.747,-0.141 -0.572,0.05 -1.143,0.217 -1.673,0.503 -0.503,0.273 -0.972,0.653 -1.382,1.132 l -7.826,9.398 -2.33,-1.908 11.536,-13.835 z"
   id="path83"
   inkscape:connector-curvature="0"
   style="fill:#0054a4" />
		<path
   d="m 497.807,191.916 c 1.154,-0.517 2.304,-0.827 3.494,-0.884 1.19,-0.077 2.345,0.104 3.484,0.559 1.134,0.419 2.172,1.169 3.139,2.195 0.376,0.426 0.698,0.838 0.959,1.234 0.258,0.398 0.479,0.812 0.675,1.22 0.175,0.421 0.338,0.852 0.464,1.305 0.137,0.48 0.271,0.973 0.41,1.513 l -2.863,0.611 c -0.173,-0.682 -0.387,-1.393 -0.613,-2.109 -0.253,-0.726 -0.619,-1.341 -1.101,-1.872 -0.667,-0.727 -1.387,-1.214 -2.167,-1.415 -0.781,-0.236 -1.552,-0.296 -2.34,-0.17 -0.784,0.12 -1.567,0.39 -2.33,0.796 -0.758,0.407 -1.438,0.886 -2.066,1.462 -0.536,0.533 -1.096,1.153 -1.557,1.874 -0.487,0.734 -0.836,1.502 -1.044,2.31 -0.204,0.776 -0.263,1.579 -0.152,2.374 0.116,0.794 0.479,1.521 1.098,2.19 0.245,0.263 0.523,0.504 0.854,0.686 0.343,0.167 0.667,0.343 0.992,0.512 0.304,0.144 0.618,0.301 0.904,0.419 0.296,0.121 0.495,0.268 0.654,0.446 0.253,0.271 0.379,0.612 0.369,1.015 -0.023,0.367 -0.171,0.684 -0.438,0.934 -0.371,0.347 -0.81,0.485 -1.346,0.427 -0.499,-0.074 -1.018,-0.258 -1.512,-0.52 -0.516,-0.282 -1.006,-0.612 -1.459,-0.995 -0.451,-0.393 -0.797,-0.712 -1.057,-0.986 -0.943,-1.033 -1.59,-2.12 -1.915,-3.287 -0.348,-1.157 -0.409,-2.305 -0.242,-3.437 0.165,-1.152 0.557,-2.271 1.173,-3.333 0.631,-1.075 1.409,-2.064 2.357,-2.939 0.977,-0.895 2.015,-1.604 3.176,-2.135 z"
   id="path85"
   inkscape:connector-curvature="0"
   style="fill:#0054a4" />
		<path
   d="m 504.685,210.76 c -0.431,0.662 -0.709,1.353 -0.854,2.083 -0.157,0.721 -0.165,1.459 -0.018,2.22 0.132,0.745 0.436,1.449 0.925,2.113 0.387,0.546 0.833,1.042 1.348,1.502 0.516,0.451 1.026,0.888 1.541,1.287 l -1.554,1.937 c -0.742,-0.442 -1.415,-0.932 -2.01,-1.406 -0.567,-0.49 -1.145,-1.102 -1.645,-1.818 -0.851,-1.162 -1.355,-2.35 -1.557,-3.546 -0.203,-1.223 -0.159,-2.402 0.129,-3.557 0.314,-1.144 0.835,-2.237 1.593,-3.27 0.758,-1.002 1.686,-1.904 2.775,-2.7 1.025,-0.72 2.142,-1.255 3.346,-1.606 1.19,-0.356 2.373,-0.495 3.574,-0.396 1.175,0.074 2.278,0.393 3.357,0.937 1.067,0.557 1.975,1.383 2.761,2.461 0.739,1.024 1.18,2.133 1.309,3.282 0.178,1.149 0.108,2.233 -0.206,3.323 -0.304,1.095 -0.804,2.102 -1.5,3.085 -0.68,0.958 -1.51,1.773 -2.469,2.464 -0.557,0.396 -1.023,0.523 -1.387,0.396 -0.355,-0.123 -0.701,-0.437 -1.092,-0.965 l -6.747,-9.499 c -0.643,0.454 -1.179,1.019 -1.619,1.673 z m 9.527,5.392 c 0.582,-0.445 1.103,-0.983 1.554,-1.575 0.443,-0.636 0.794,-1.286 1.019,-1.979 0.236,-0.699 0.335,-1.407 0.257,-2.12 -0.059,-0.72 -0.307,-1.403 -0.763,-2.053 -0.522,-0.75 -1.128,-1.255 -1.775,-1.567 -0.646,-0.286 -1.34,-0.446 -2.038,-0.439 -0.706,0.005 -1.434,0.127 -2.186,0.358 -0.729,0.242 -1.438,0.517 -2.077,0.88 l 6.009,8.495 z"
   id="path87"
   inkscape:connector-curvature="0"
   style="fill:#0054a4" />
		<path
   d="m 524.247,218.919 c 0.379,-0.197 0.768,-0.245 1.17,-0.115 0.396,0.135 0.686,0.38 0.902,0.724 0.167,0.323 0.224,0.672 0.195,1.102 -0.057,0.398 -0.253,0.709 -0.61,0.91 -0.281,0.148 -0.539,0.29 -0.822,0.405 -0.266,0.124 -0.541,0.254 -0.835,0.388 0.366,-0.063 0.783,-0.091 1.258,-0.067 0.428,0.021 0.879,0.091 1.313,0.194 0.443,0.124 0.836,0.296 1.188,0.542 0.363,0.237 0.654,0.521 0.858,0.89 0.231,0.405 0.294,0.848 0.188,1.304 -0.11,0.455 -0.363,0.786 -0.777,1.022 -0.363,0.208 -0.691,0.232 -1.014,0.114 -0.324,-0.114 -0.646,-0.307 -0.989,-0.565 -0.34,-0.241 -0.727,-0.514 -1.173,-0.794 -0.44,-0.281 -0.948,-0.506 -1.527,-0.616 -0.606,-0.119 -1.269,-0.098 -2.062,0.035 -0.775,0.153 -1.695,0.516 -2.783,1.101 l -8.658,4.823 -1.511,-2.653 15.689,-8.744 z"
   id="path89"
   inkscape:connector-curvature="0"
   style="fill:#0054a4" />
		<path
   d="m 540.552,238.243 c 0.478,-0.167 0.902,-0.119 1.31,0.112 0.363,0.236 0.626,0.589 0.786,1.036 l 3.198,9.429 -2.683,0.903 -2.742,-8.062 -8.298,2.82 2.189,6.475 c 0.137,0.339 0.104,0.728 -0.063,1.095 -0.157,0.353 -0.421,0.621 -0.786,0.751 -0.387,0.12 -0.753,0.092 -1.116,-0.085 -0.355,-0.19 -0.59,-0.464 -0.714,-0.853 l -2.222,-6.538 -10.854,3.676 -1.013,-2.944 23.008,-7.815 z"
   id="path91"
   inkscape:connector-curvature="0"
   style="fill:#0054a4" />
		<path
   d="m 535.223,257.714 c 1.234,0.167 2.373,0.499 3.412,1.034 1.031,0.524 1.936,1.267 2.686,2.202 0.75,0.93 1.268,2.037 1.505,3.355 0.258,1.327 0.198,2.551 -0.152,3.696 -0.368,1.152 -0.933,2.157 -1.698,3.018 -0.781,0.892 -1.703,1.625 -2.812,2.237 -1.074,0.584 -2.239,1.012 -3.456,1.228 -1.178,0.242 -2.44,0.284 -3.672,0.142 -1.242,-0.142 -2.402,-0.479 -3.474,-1.012 -1.06,-0.53 -1.962,-1.263 -2.737,-2.175 -0.755,-0.935 -1.245,-2.072 -1.505,-3.381 -0.258,-1.33 -0.201,-2.573 0.154,-3.713 0.371,-1.145 0.972,-2.175 1.753,-3.047 0.793,-0.902 1.747,-1.651 2.845,-2.238 1.103,-0.602 2.283,-1.009 3.505,-1.227 1.187,-0.247 2.402,-0.285 3.646,-0.119 z m -5.455,4.028 c -0.81,0.362 -1.506,0.797 -2.135,1.322 -0.631,0.554 -1.131,1.18 -1.422,1.904 -0.343,0.742 -0.42,1.56 -0.237,2.469 0.181,0.977 0.567,1.747 1.124,2.341 0.574,0.59 1.231,1.021 2.005,1.304 0.765,0.268 1.593,0.438 2.474,0.459 0.887,0.013 1.729,-0.039 2.557,-0.205 0.819,-0.131 1.618,-0.38 2.417,-0.744 0.796,-0.352 1.477,-0.803 2.077,-1.353 0.598,-0.541 1.039,-1.192 1.355,-1.939 0.31,-0.73 0.377,-1.583 0.186,-2.525 -0.178,-0.906 -0.536,-1.651 -1.11,-2.21 -0.575,-0.566 -1.245,-0.977 -2.028,-1.271 -0.783,-0.273 -1.574,-0.427 -2.433,-0.464 -0.848,-0.026 -1.681,0.037 -2.461,0.166 -0.778,0.139 -1.563,0.416 -2.369,0.746 z"
   id="path93"
   inkscape:connector-curvature="0"
   style="fill:#0054a4" />
		<path
   d="m 544.261,278.216 0.181,3.046 -11.595,0.488 c -1.518,0.047 -2.675,0.473 -3.502,1.223 -0.825,0.751 -1.217,1.926 -1.149,3.502 0.085,1.565 0.566,2.706 1.428,3.391 0.887,0.704 2.082,1.028 3.595,0.951 l 10.736,-0.449 c 0.392,-0.023 0.755,0.122 1.079,0.421 0.33,0.277 0.503,0.633 0.516,1.023 0.019,0.433 -0.121,0.803 -0.422,1.108 -0.3,0.302 -0.658,0.463 -1.088,0.469 l -10.772,0.45 c -2.428,0.099 -4.312,-0.473 -5.634,-1.729 -1.313,-1.268 -2.01,-3.12 -2.115,-5.526 -0.105,-2.424 0.451,-4.305 1.659,-5.679 1.204,-1.37 3.016,-2.096 5.461,-2.208 l 11.622,-0.481 z"
   id="path95"
   inkscape:connector-curvature="0"
   style="fill:#0054a4" />
		<path
   d="m 543.964,298.696 c 0.423,0.049 0.773,0.241 1.044,0.583 0.245,0.335 0.389,0.715 0.325,1.165 -0.019,0.385 -0.135,0.657 -0.312,0.845 -0.203,0.182 -0.423,0.309 -0.688,0.376 -0.248,0.052 -0.542,0.072 -0.846,0.026 -0.304,-0.04 -0.603,-0.059 -0.855,-0.085 0.763,0.635 1.304,1.443 1.665,2.382 0.309,0.964 0.453,1.933 0.355,2.921 -0.119,1.062 -0.376,2.005 -0.827,2.829 -0.436,0.83 -1.019,1.516 -1.719,2.057 -0.691,0.552 -1.505,0.943 -2.418,1.17 -0.907,0.248 -1.892,0.312 -2.933,0.22 l -10.986,-1.075 c -0.425,-0.046 -0.78,-0.222 -1.051,-0.546 -0.261,-0.335 -0.379,-0.714 -0.343,-1.129 0.049,-0.418 0.216,-0.737 0.564,-1.016 0.299,-0.247 0.67,-0.355 1.079,-0.327 l 10.984,1.08 c 0.618,0.062 1.221,-0.021 1.809,-0.191 0.575,-0.19 1.098,-0.461 1.547,-0.835 0.469,-0.381 0.86,-0.84 1.139,-1.355 0.316,-0.525 0.5,-1.104 0.557,-1.709 0.077,-0.634 -0.011,-1.219 -0.181,-1.791 -0.186,-0.574 -0.469,-1.079 -0.845,-1.534 -0.393,-0.434 -0.836,-0.791 -1.366,-1.08 -0.513,-0.285 -1.088,-0.46 -1.711,-0.51 l -12.21,-1.193 0.291,-2.987 17.932,1.709 z"
   id="path97"
   inkscape:connector-curvature="0"
   style="fill:#0054a4" />
		<path
   d="m 547.566,334.716 -0.729,2.953 -25.516,-6.409 c -0.405,-0.105 -0.725,-0.322 -0.928,-0.688 -0.22,-0.365 -0.289,-0.736 -0.178,-1.134 0.113,-0.448 0.293,-0.75 0.546,-0.907 0.237,-0.17 0.523,-0.25 0.846,-0.258 0.312,0 0.628,0.026 0.977,0.124 0.363,0.077 0.678,0.168 0.969,0.253 -0.786,-0.846 -1.317,-1.81 -1.58,-2.892 -0.263,-1.082 -0.234,-2.17 0.036,-3.286 0.32,-1.26 0.871,-2.301 1.706,-3.131 0.81,-0.835 1.747,-1.469 2.827,-1.902 1.06,-0.433 2.209,-0.685 3.438,-0.742 1.234,-0.066 2.379,0.05 3.519,0.328 1.2,0.307 2.34,0.78 3.414,1.43 1.067,0.647 1.977,1.438 2.706,2.355 0.729,0.915 1.234,1.948 1.533,3.108 0.278,1.165 0.278,2.394 -0.077,3.727 -0.258,1.063 -0.742,1.994 -1.458,2.783 -0.696,0.783 -1.572,1.329 -2.643,1.628 l 10.592,2.66 z m -22.917,-8.757 c 0.214,0.731 0.562,1.392 1.051,1.956 0.479,0.574 1.083,1.054 1.799,1.44 0.727,0.387 1.489,0.686 2.283,0.895 0.827,0.203 1.69,0.329 2.557,0.417 0.915,0.075 1.768,0.028 2.541,-0.173 0.804,-0.18 1.484,-0.521 2.124,-1.069 0.605,-0.538 1.041,-1.309 1.293,-2.337 0.225,-0.918 0.225,-1.748 -0.013,-2.498 -0.239,-0.777 -0.645,-1.445 -1.183,-2.048 -0.544,-0.583 -1.186,-1.088 -1.933,-1.49 -0.753,-0.392 -1.513,-0.69 -2.314,-0.892 -0.769,-0.181 -1.577,-0.304 -2.443,-0.34 -0.868,-0.041 -1.695,0.052 -2.464,0.314 -0.763,0.222 -1.433,0.629 -2.025,1.149 -0.593,0.528 -1,1.278 -1.231,2.186 -0.233,0.9 -0.246,1.737 -0.042,2.49 z"
   id="path99"
   inkscape:connector-curvature="0"
   style="fill:#0054a4" />
		<path
   d="m 530.463,353.188 c 0.263,0.131 0.482,0.296 0.686,0.442 0.16,0.181 0.307,0.397 0.358,0.655 0.069,0.258 0.008,0.572 -0.147,0.984 -0.175,0.366 -0.438,0.629 -0.84,0.763 -0.387,0.113 -0.763,0.113 -1.123,-0.031 l -16.68,-7.051 1.199,-2.801 2.525,1.057 c -0.676,-0.899 -1.039,-1.89 -1.132,-2.948 -0.093,-1.067 0.085,-2.105 0.539,-3.145 0.522,-1.263 1.249,-2.26 2.172,-2.984 0.951,-0.734 1.989,-1.255 3.113,-1.535 1.14,-0.271 2.324,-0.343 3.533,-0.209 1.255,0.123 2.44,0.44 3.579,0.923 1.135,0.481 2.165,1.107 3.096,1.912 0.961,0.788 1.701,1.698 2.275,2.703 0.574,1.01 0.923,2.098 1.052,3.288 0.139,1.165 -0.072,2.366 -0.596,3.608 -0.417,0.966 -0.995,1.801 -1.76,2.497 -0.776,0.727 -1.67,1.211 -2.696,1.489 0.282,0.135 0.569,0.259 0.847,0.383 z m -5.917,-13.638 c -0.86,-0.175 -1.719,-0.206 -2.521,-0.113 -0.799,0.101 -1.557,0.382 -2.239,0.819 -0.693,0.459 -1.229,1.135 -1.605,2.047 -0.407,0.994 -0.552,1.881 -0.392,2.721 0.134,0.802 0.459,1.536 0.972,2.184 0.513,0.636 1.151,1.195 1.928,1.672 0.755,0.498 1.577,0.907 2.409,1.269 0.763,0.316 1.541,0.562 2.36,0.747 0.841,0.183 1.64,0.227 2.412,0.118 0.747,-0.105 1.448,-0.387 2.104,-0.829 0.651,-0.449 1.164,-1.135 1.541,-2.055 0.384,-0.899 0.51,-1.765 0.371,-2.563 -0.101,-0.81 -0.413,-1.544 -0.884,-2.219 -0.467,-0.668 -1.055,-1.264 -1.761,-1.792 -0.701,-0.515 -1.448,-0.928 -2.208,-1.263 -0.794,-0.325 -1.616,-0.564 -2.487,-0.743 z"
   id="path101"
   inkscape:connector-curvature="0"
   style="fill:#0054a4" />
		<path
   d="m 530.282,365.785 c 0.361,0.211 0.624,0.505 0.769,0.914 0.17,0.41 0.134,0.822 -0.072,1.22 -0.217,0.371 -0.541,0.607 -0.992,0.69 -0.448,0.088 -0.863,0.028 -1.217,-0.17 l -3.719,-2.178 c -0.123,0.219 -0.268,0.477 -0.428,0.794 -0.175,0.312 -0.376,0.6 -0.566,0.863 -0.212,0.244 -0.462,0.417 -0.737,0.521 -0.273,0.095 -0.618,0.049 -0.989,-0.16 -0.351,-0.206 -0.555,-0.464 -0.604,-0.747 -0.049,-0.299 -0.049,-0.593 0.062,-0.902 0.099,-0.278 0.245,-0.593 0.448,-0.896 0.181,-0.312 0.346,-0.564 0.451,-0.778 l -14.308,-8.18 1.487,-2.629 14.32,8.19 c 0.132,-0.214 0.281,-0.487 0.436,-0.789 0.157,-0.288 0.338,-0.551 0.519,-0.788 0.211,-0.232 0.469,-0.392 0.734,-0.492 0.271,-0.08 0.587,-0.036 0.933,0.173 0.346,0.203 0.562,0.438 0.624,0.711 0.066,0.268 0.062,0.554 -0.031,0.86 -0.075,0.284 -0.217,0.572 -0.384,0.861 -0.176,0.293 -0.338,0.546 -0.462,0.768 l 3.726,2.144 z"
   id="path103"
   inkscape:connector-curvature="0"
   style="fill:#0054a4" />
		<path
   d="m 520.118,371.893 c 0.374,0.278 0.588,0.605 0.634,1.021 0.064,0.396 -0.046,0.791 -0.268,1.139 -0.231,0.346 -0.546,0.539 -0.956,0.585 -0.409,0.062 -0.78,-0.008 -1.09,-0.219 l -14.942,-10.03 1.662,-2.499 14.96,10.003 z m 5.222,4.179 c 0.072,0.341 0.013,0.654 -0.198,0.979 -0.199,0.278 -0.456,0.459 -0.802,0.541 -0.363,0.091 -0.668,0.031 -0.979,-0.165 -0.283,-0.188 -0.479,-0.474 -0.541,-0.824 -0.072,-0.341 -0.013,-0.66 0.196,-0.969 0.2,-0.273 0.458,-0.464 0.816,-0.542 0.363,-0.074 0.668,-0.021 0.951,0.176 0.291,0.191 0.489,0.461 0.557,0.804 z"
   id="path105"
   inkscape:connector-curvature="0"
   style="fill:#0054a4" />
		<path
   d="m 511.776,375.97 c 0.668,1.049 1.121,2.144 1.371,3.275 0.258,1.151 0.258,2.307 0.028,3.481 -0.247,1.167 -0.788,2.278 -1.654,3.312 -0.861,1.033 -1.819,1.772 -2.928,2.219 -1.121,0.451 -2.242,0.665 -3.417,0.624 -1.186,-0.039 -2.351,-0.284 -3.479,-0.748 -1.167,-0.464 -2.236,-1.087 -3.197,-1.881 -0.928,-0.778 -1.745,-1.706 -2.431,-2.758 -0.681,-1.051 -1.154,-2.149 -1.433,-3.324 -0.245,-1.139 -0.278,-2.309 -0.034,-3.479 0.201,-1.181 0.761,-2.281 1.611,-3.325 0.86,-1.046 1.873,-1.78 2.979,-2.231 1.113,-0.448 2.278,-0.66 3.481,-0.61 1.184,0.041 2.369,0.309 3.519,0.78 1.157,0.49 2.216,1.113 3.169,1.907 0.936,0.799 1.766,1.717 2.415,2.758 z m -6.579,-1.632 c -0.771,-0.401 -1.577,-0.678 -2.392,-0.807 -0.799,-0.165 -1.582,-0.108 -2.366,0.111 -0.777,0.203 -1.453,0.683 -2.051,1.376 -0.624,0.766 -0.989,1.538 -1.082,2.357 -0.105,0.807 -0.021,1.596 0.271,2.366 0.271,0.783 0.683,1.521 1.234,2.222 0.53,0.688 1.118,1.304 1.768,1.848 0.624,0.518 1.332,0.977 2.116,1.353 0.775,0.418 1.549,0.66 2.353,0.773 0.814,0.098 1.582,0.041 2.366,-0.206 0.763,-0.237 1.455,-0.711 2.074,-1.446 0.58,-0.739 0.909,-1.484 0.986,-2.268 0.075,-0.812 -0.03,-1.603 -0.309,-2.379 -0.266,-0.763 -0.67,-1.489 -1.186,-2.172 -0.525,-0.673 -1.088,-1.268 -1.706,-1.786 -0.588,-0.499 -1.308,-0.958 -2.076,-1.342 z"
   id="path107"
   inkscape:connector-curvature="0"
   style="fill:#0054a4" />
		<path
   d="m 501.208,395.391 c 0.304,0.316 0.431,0.686 0.402,1.123 -0.042,0.423 -0.212,0.783 -0.539,1.082 -0.283,0.253 -0.564,0.382 -0.817,0.387 -0.257,0.026 -0.52,-0.03 -0.739,-0.175 -0.224,-0.124 -0.461,-0.297 -0.675,-0.536 -0.193,-0.234 -0.377,-0.448 -0.56,-0.649 0.149,0.964 0.005,1.923 -0.389,2.881 -0.395,0.934 -0.962,1.729 -1.704,2.392 -0.799,0.714 -1.634,1.237 -2.515,1.541 -0.882,0.299 -1.763,0.438 -2.654,0.351 -0.887,-0.062 -1.732,-0.33 -2.567,-0.768 -0.845,-0.454 -1.603,-1.047 -2.309,-1.84 l -7.376,-8.193 c -0.294,-0.321 -0.44,-0.708 -0.417,-1.12 0.03,-0.434 0.201,-0.773 0.521,-1.057 0.299,-0.284 0.665,-0.39 1.074,-0.366 0.41,0.025 0.745,0.195 1.026,0.505 l 7.378,8.18 c 0.423,0.469 0.904,0.83 1.461,1.088 0.562,0.26 1.132,0.407 1.729,0.443 0.577,0.03 1.167,-0.055 1.747,-0.24 0.582,-0.178 1.093,-0.472 1.557,-0.899 0.469,-0.412 0.819,-0.892 1.069,-1.436 0.25,-0.541 0.376,-1.115 0.412,-1.698 0.019,-0.58 -0.069,-1.154 -0.271,-1.722 -0.198,-0.551 -0.5,-1.066 -0.915,-1.535 l -8.192,-9.087 2.234,-2.025 12.029,13.373 z"
   id="path109"
   inkscape:connector-curvature="0"
   style="fill:#0054a4" />
	</g>
	<path
   d="m 357.972,263.894 c -0.023,9.844 -8.013,17.805 -17.845,17.8 -9.845,-0.02 -17.812,-8.012 -17.791,-17.845 0,-9.838 7.986,-17.81 17.827,-17.793 9.828,0.016 17.809,8.001 17.809,17.838 z"
   id="path111"
   inkscape:connector-curvature="0"
   style="fill:#0093d0" />
	<path
   d="m 461.467,224.168 c -0.021,9.828 -7.981,17.778 -17.825,17.776 -9.813,-0.018 -17.771,-7.987 -17.767,-17.819 0.021,-9.831 8.002,-17.789 17.812,-17.783 9.84,0.013 17.783,7.997 17.78,17.826 z"
   id="path113"
   inkscape:connector-curvature="0"
   style="fill:#0054a4" />
	<g
   id="g115">
		<path
   d="m 285.703,285.901 c -3.953,-2.708 -6.425,-4.216 -6.425,-4.216 0,0 1.803,1.824 6.425,4.216 z"
   id="path117"
   inkscape:connector-curvature="0"
   style="fill:#0093d0" />
		<path
   d="m 410.036,372.658 c 0,0 -1.01,-3.539 -5.563,-3.539 -4.553,0 -4.044,0 -9.603,-4.566 -0.771,-0.634 -1.237,-0.938 -1.503,-1.036 -10.887,-14.836 -23.37,-44.062 -0.012,-86.052 0,0 -14.359,23.045 -57.992,19.878 -27.049,-1.959 -42.098,-7.503 -49.66,-11.442 13.462,9.201 44.309,32.476 55.812,59.448 9.441,22.086 21.421,59.046 13.372,75.766 -6.409,13.288 6.561,3.023 6.561,3.023 0,0 -7.489,-45.726 5.604,-55.069 11.197,-7.977 30.117,1.796 35.374,4.824 l 4.047,2.809 3.563,-4.044 z"
   id="path119"
   inkscape:connector-curvature="0"
   style="fill:#0093d0" />
	</g>
	<path
   d="m 508.287,236.6 c 0,0 -34.51,27.876 -67.529,20.367 -33.035,-7.538 -50.453,-26.254 -50.453,-26.254 0,0 42.569,58.086 -0.937,92.896 -0.977,-0.031 -3.728,-4.639 -4.518,-5.051 -2.04,-1.016 -1.028,4.038 -1.028,4.038 l 2.604,6.607 c 0,0 25.586,-15.547 31.794,-4.332 6.229,11.226 10.53,57.981 10.53,57.981 l 5.028,6.013 c 0,0 3.52,-2.531 1.502,-5.059 -1.33,-1.652 -3.714,-7.234 -4.788,-12.453 4.851,-26.201 22.076,-91.367 77.795,-134.753 z"
   id="path121"
   inkscape:connector-curvature="0"
   style="fill:#0054a4" />
</g>
</svg>